<svg width="86" height="91" viewBox="0 0 86 91" fill="none" xmlns="http://www.w3.org/2000/svg">
<path fill-rule="evenodd" clip-rule="evenodd" d="M39.3829 17.5139C42.0962 14.0181 45.263 9.93963 49.1087 6.72885C52.9463 3.52486 57.4158 1.22304 62.7288 1.22304C74.1934 1.22304 83.5205 10.5501 83.5205 22.0148H84.7435C84.7435 9.87467 74.8689 0 62.7288 0C57.0344 0 52.2964 2.47416 48.3249 5.79001C44.3739 9.08862 41.1379 13.2579 38.4423 16.731L38.4167 16.764L37.6468 17.758L37.6465 17.7584C37.1442 18.4036 36.6462 19.0486 36.1528 19.6887C35.7995 20.1472 35.4554 20.5924 35.1194 21.0242C33.4038 18.8597 31.8556 17.0422 30.3542 15.6659C28.2821 13.7666 26.2254 12.6381 23.8563 12.6381C18.6833 12.6381 14.4797 16.8462 14.4797 22.0148H14.4797C14.4798 27.1834 18.6834 31.3914 23.8564 31.3914C26.2255 31.3914 28.2822 30.263 30.3542 28.3637C31.8557 26.9874 33.4038 25.17 35.1194 23.0055C35.4553 23.4372 35.7995 23.8824 36.1527 24.3409L36.1528 24.3409C36.6461 24.981 37.1441 25.6259 37.6463 26.271L37.6467 26.2716L38.4163 27.2651L38.4165 27.2654L38.4282 27.2804L38.4282 27.2805C41.1247 30.7573 44.365 34.9353 48.3233 38.2396C52.2954 41.5554 57.0343 44.0296 62.7287 44.0296C74.8688 44.0296 84.7435 34.1549 84.7435 22.0148H83.5204C83.5204 33.4794 74.1933 42.8065 62.7287 42.8065C57.4157 42.8065 52.9452 40.5047 49.1071 37.3007C45.2609 34.09 42.0941 30.0115 39.383 26.5159L38.6127 25.5215L38.6118 25.5203C38.1113 24.8773 37.6146 24.2341 37.1215 23.5943C36.7034 23.0517 36.296 22.5248 35.898 22.0148C36.296 21.5048 36.7034 20.9779 37.1216 20.4353C37.6147 19.7954 38.1113 19.1522 38.6118 18.5093L39.3829 17.5139ZM34.3433 22.0148C32.5676 19.765 31.0148 17.9305 29.5278 16.5675C27.5658 14.7691 25.7924 13.8612 23.8563 13.8612C19.3592 13.8612 15.7027 17.5213 15.7027 22.0148H15.7028C15.7028 26.5082 19.3592 30.1684 23.8564 30.1684C25.7924 30.1684 27.5659 29.2605 29.5278 27.4621C31.0148 26.0991 32.5676 24.2646 34.3433 22.0148Z" fill="url(#paint0_linear_58_329)"/>
<path fill-rule="evenodd" clip-rule="evenodd" d="M63.3403 6.93018C59.1695 6.93018 55.5001 9.03936 52.3198 11.8443C49.1506 14.6394 46.3941 18.1917 44.0478 21.2153L44.0234 21.2467L44.0223 21.2481L43.7233 21.6312C43.4974 21.3398 43.2727 21.0488 43.0486 20.7585L43.0477 20.7573L42.7349 20.3522C40.0528 16.8675 37.4492 13.518 34.5595 11.0472C31.6537 8.56278 28.4176 6.93018 24.4679 6.93018C15.8135 6.93018 8.77222 13.9715 8.77222 22.6259C8.77222 31.2803 15.8135 38.3216 24.4679 38.3216C28.4176 38.3216 31.6537 36.689 34.5595 34.2046C37.4492 31.7338 40.0528 28.3843 42.7349 24.8996L43.0477 24.4945L43.048 24.4941C43.2723 24.2036 43.4972 23.9123 43.7233 23.6206L44.0223 24.0037L44.0234 24.005L44.0478 24.0365C46.3941 27.0601 49.1506 30.6124 52.3198 33.4075C55.5001 36.2124 59.1695 38.3216 63.3403 38.3216C71.9947 38.3216 79.036 31.2803 79.036 22.6259C79.036 13.9715 71.9947 6.93018 63.3403 6.93018ZM42.9473 22.6259C42.6551 22.2501 42.3655 21.8751 42.0784 21.5032L42.0784 21.5031L41.7671 21.1L41.7664 21.0991C39.0673 17.5924 36.5404 14.3501 33.7647 11.9768C31.0047 9.61695 28.04 8.15322 24.4679 8.15322C16.489 8.15322 9.99526 14.6469 9.99526 22.6259C9.99526 30.6048 16.489 37.0986 24.4679 37.0986C28.04 37.0986 31.0047 35.6348 33.7647 33.275C36.5404 30.9017 39.0673 27.6594 41.7664 24.1527L41.7671 24.1518L42.0784 23.7486L42.0784 23.7486C42.3655 23.3767 42.6551 23.0016 42.9473 22.6259ZM44.4984 22.6259L44.9886 23.2539C47.3536 26.3017 50.0495 29.7745 53.1288 32.4902C56.2084 35.2064 59.5981 37.0986 63.3403 37.0986C71.3193 37.0986 77.813 30.6048 77.813 22.6259C77.813 14.6469 71.3193 8.15322 63.3403 8.15322C59.5981 8.15322 56.2084 10.0454 53.1288 12.7615C50.0495 15.4773 47.3536 18.9501 44.9886 21.9979L44.9875 21.9992L44.4984 22.6259Z" fill="url(#paint1_linear_58_329)"/>
<path fill-rule="evenodd" clip-rule="evenodd" d="M25.0793 0.408203C12.9392 0.408203 3.06451 10.2829 3.06451 22.423H4.28756C4.28756 10.9583 13.6147 1.63125 25.0793 1.63125C35.4734 1.63125 41.6975 9.65311 47.3841 17.0396C47.8612 17.6594 48.3432 18.2844 48.8335 18.9136L49.6244 19.9287L49.6342 19.9413C50.257 20.7439 50.9067 21.5812 51.5782 22.423C50.9067 23.2647 50.257 24.102 49.6343 24.9045L49.6342 24.9046L49.6244 24.9172L48.8335 25.9324C48.3432 26.5617 47.8612 27.1866 47.3841 27.8064C41.6975 35.1929 35.4734 43.2147 25.0793 43.2147C13.6147 43.2147 4.28756 33.8876 4.28756 22.423H3.06451C3.06451 34.5631 12.9392 44.4378 25.0793 44.4378C36.124 44.4378 42.6925 35.9056 48.2834 28.6431L48.3532 28.5525C48.8301 27.933 49.3102 27.3104 49.7983 26.6841L50.59 25.668C51.1655 24.9262 51.7583 24.1625 52.3654 23.3981C53.6239 24.9368 54.9489 26.4514 56.3093 27.7564C58.6811 30.0318 61.289 31.7996 63.9517 31.7996C69.1247 31.7996 73.3283 27.5915 73.3283 22.423C73.3283 17.2544 69.1247 13.0464 63.9517 13.0464C61.289 13.0464 58.6811 14.8141 56.3093 17.0896C54.9489 18.3946 53.6239 19.9092 52.3654 21.4479C51.7583 20.6835 51.1655 19.9198 50.59 19.178L49.7983 18.1619C49.3102 17.5356 48.83 16.9129 48.3532 16.2935L48.2834 16.2028C42.6925 8.94037 36.124 0.408203 25.0793 0.408203ZM53.1484 22.423C54.436 24.0067 55.7805 25.5543 57.156 26.8739C59.497 29.1196 61.7996 30.5766 63.9517 30.5766C68.4488 30.5766 72.1053 26.9164 72.1053 22.423C72.1053 17.9295 68.4488 14.2694 63.9517 14.2694C61.7996 14.2694 59.497 15.7264 57.156 17.9721C55.7805 19.2917 54.436 20.8392 53.1484 22.423Z" fill="url(#paint2_linear_58_329)"/>
<path d="M1.68341 72.9464L3.26812 70.8285C4.47237 71.9339 6.11399 72.8236 8.1091 72.8236C10.3439 72.8236 11.9855 71.7961 11.9855 70.0856C11.9855 68.1983 10.4547 66.9791 5.93725 66.9791V64.5705C9.87953 64.5705 11.3774 63.3303 11.3774 61.6498C11.3774 60.14 10.0982 59.2233 8.17201 59.2233C6.59929 59.2233 5.21829 59.9033 3.99307 60.9338L2.28854 58.8938C3.93615 57.5098 5.95822 56.5781 8.31281 56.5781C12.0304 56.5781 14.7145 58.3246 14.7145 61.4071C14.7145 63.4472 13.2467 64.8222 11.0209 65.61V65.7239C13.3875 66.2841 15.3226 67.8268 15.3226 70.2683C15.3226 73.5845 12.1383 75.5347 8.3877 75.5347C5.25424 75.5287 3.06441 74.3873 1.68341 72.9464Z" fill="white"/>
<path d="M19.9001 56.4229H26.1731C30.0644 56.4229 33.09 57.8009 33.09 61.9948C33.09 66.0269 30.0644 67.8573 26.1731 67.8573H23.2553V75.1847H19.9001V56.4229ZM25.8256 65.1882C28.3958 65.1882 29.7918 64.1097 29.7918 61.9948C29.7918 59.8439 28.3958 59.089 25.8256 59.089H23.2523V65.1882H25.8256ZM27.9555 64.9635L33.812 75.1817H30.0644L25.535 66.9616L27.9555 64.9635Z" fill="white"/>
<path d="M37.6643 56.4229H49.6949V59.2298H41.0015V64.0288H48.3648V66.8358H41.0015V72.3807H49.9825V75.1877H37.6643V56.4229Z" fill="white"/>
<path d="M54.1824 56.4229H59.0953C64.6342 56.4229 67.9564 59.5174 67.9564 65.7184C67.9564 71.9374 64.6342 75.1847 59.275 75.1847H54.1854V56.4229H54.1824ZM58.8916 72.4766C62.4714 72.4766 64.5204 70.3317 64.5204 65.7154C64.5204 61.117 62.4714 59.1279 58.8916 59.1279H57.5195V72.4766H58.8916Z" fill="white"/>
<path d="M70.994 70.5175C70.994 68.1389 72.7465 66.7669 74.6727 65.8502V65.7364C73.1509 64.7359 71.9526 63.3638 71.9526 61.4496C71.9526 58.4899 74.439 56.5757 77.89 56.5757C81.4968 56.5757 83.7196 58.5828 83.7196 61.5185C83.7196 63.2201 82.4884 64.7029 81.0205 65.6795V65.7933C82.9886 66.7759 84.5224 68.0311 84.5224 70.5684C84.5224 73.3693 82.0869 75.5322 77.7702 75.5322C73.5972 75.5292 70.994 73.4472 70.994 70.5175ZM81.4009 70.4486C81.4009 68.3666 79.2381 67.7585 76.3473 66.7489C74.9483 67.5787 73.9148 68.6632 73.9148 70.161C73.9148 71.9584 75.5235 73.1597 77.8511 73.1597C80.0409 73.1597 81.4009 72.1531 81.4009 70.4486ZM80.9366 61.7132C80.9366 60.1225 79.8252 58.9423 77.8121 58.9423C76.1406 58.9423 74.9123 59.8589 74.9123 61.4496C74.9123 63.271 76.6918 64.0858 79.1212 64.8826C80.3195 63.918 80.9366 62.8636 80.9366 61.7132Z" fill="white"/>
<path d="M2.42055 84.4385H0V83.8088H5.56923V84.4385H3.14868V90.6965H2.42055V84.4385Z" fill="white"/>
<path d="M9.22189 85.4815C9.8713 85.4815 10.3862 85.6717 10.7667 86.0522C11.1537 86.4261 11.3472 86.9739 11.3472 87.6954V90.6965H10.6486V87.7643C10.6486 87.2264 10.5142 86.8164 10.2452 86.5344C9.97626 86.2523 9.59251 86.1112 9.09397 86.1112C8.53639 86.1112 8.09361 86.2785 7.76562 86.6131C7.44419 86.9411 7.28348 87.397 7.28348 87.9808V90.6965H6.58487V83.3955H7.28348V86.4261C7.47371 86.1244 7.7361 85.8915 8.07065 85.7275C8.4052 85.5635 8.78894 85.4815 9.22189 85.4815Z" fill="white"/>
<path d="M17.7697 88.3252H13.4402C13.4796 88.8631 13.6862 89.2993 14.0601 89.6338C14.434 89.9618 14.9063 90.1258 15.477 90.1258C15.7985 90.1258 16.0937 90.0701 16.3626 89.9585C16.6316 89.8405 16.8644 89.6699 17.0612 89.4469L17.4548 89.8995C17.2252 90.175 16.9366 90.3849 16.5889 90.5292C16.2478 90.6736 15.8706 90.7457 15.4574 90.7457C14.926 90.7457 14.4537 90.6342 14.0405 90.4112C13.6338 90.1816 13.3156 89.8667 13.086 89.4666C12.8564 89.0664 12.7416 88.6138 12.7416 88.1087C12.7416 87.6036 12.8499 87.151 13.0663 86.7508C13.2894 86.3507 13.5911 86.0391 13.9716 85.8161C14.3586 85.593 14.7916 85.4815 15.2704 85.4815C15.7493 85.4815 16.1789 85.593 16.5594 85.8161C16.9399 86.0391 17.2383 86.3507 17.4548 86.7508C17.6713 87.1444 17.7795 87.597 17.7795 88.1087L17.7697 88.3252ZM15.2704 86.0817C14.7719 86.0817 14.3521 86.2424 14.0109 86.5639C13.6764 86.8787 13.4862 87.292 13.4402 87.8037H17.1104C17.0645 87.292 16.871 86.8787 16.5299 86.5639C16.1953 86.2424 15.7755 86.0817 15.2704 86.0817Z" fill="white"/>
<path d="M27.6805 83.8088V90.6965H27.0803L22.6524 85.1076V90.6965H21.9243V83.8088H22.5245L26.9622 89.3977V83.8088H27.6805Z" fill="white"/>
<path d="M34.2876 88.3252H29.9581C29.9975 88.8631 30.2041 89.2993 30.578 89.6338C30.9519 89.9618 31.4242 90.1258 31.9949 90.1258C32.3164 90.1258 32.6116 90.0701 32.8805 89.9585C33.1495 89.8405 33.3823 89.6699 33.5791 89.4469L33.9727 89.8995C33.7431 90.175 33.4545 90.3849 33.1068 90.5292C32.7657 90.6736 32.3885 90.7457 31.9753 90.7457C31.4439 90.7457 30.9716 90.6342 30.5584 90.4112C30.1517 90.1816 29.8335 89.8667 29.6039 89.4666C29.3743 89.0664 29.2595 88.6138 29.2595 88.1087C29.2595 87.6036 29.3678 87.151 29.5842 86.7508C29.8073 86.3507 30.109 86.0391 30.4895 85.8161C30.8765 85.593 31.3095 85.4815 31.7883 85.4815C32.2672 85.4815 32.6968 85.593 33.0773 85.8161C33.4578 86.0391 33.7562 86.3507 33.9727 86.7508C34.1892 87.1444 34.2974 87.597 34.2974 88.1087L34.2876 88.3252ZM31.7883 86.0817C31.2898 86.0817 30.8699 86.2424 30.5288 86.5639C30.1943 86.8787 30.0041 87.292 29.9581 87.8037H33.6283C33.5824 87.292 33.3889 86.8787 33.0478 86.5639C32.7132 86.2424 32.2934 86.0817 31.7883 86.0817Z" fill="white"/>
<path d="M38.8715 90.6965L37.2283 88.5318L35.5753 90.6965H34.7881L36.8347 88.0398L34.8865 85.5209H35.6737L37.2283 87.5478L38.783 85.5209H39.5505L37.6022 88.0398L39.6686 90.6965H38.8715Z" fill="white"/>
<path d="M43.557 90.3816C43.4258 90.4997 43.2618 90.5916 43.065 90.6572C42.8748 90.7162 42.6747 90.7457 42.4648 90.7457C41.9794 90.7457 41.6054 90.6145 41.3431 90.3521C41.0807 90.0897 40.9495 89.7191 40.9495 89.2403V86.1112H40.0245V85.5209H40.9495V84.3893H41.6481V85.5209H43.2224V86.1112H41.6481V89.2009C41.6481 89.5092 41.7235 89.7454 41.8744 89.9093C42.0318 90.0668 42.2549 90.1455 42.5435 90.1455C42.6878 90.1455 42.8256 90.1225 42.9568 90.0766C43.0945 90.0307 43.2126 89.9651 43.311 89.8798L43.557 90.3816Z" fill="white"/>
<path d="M47.5516 83.8088H48.2797V90.6965H47.5516V83.8088Z" fill="white"/>
<path d="M53.0102 85.4815C53.6596 85.4815 54.1745 85.6717 54.555 86.0522C54.942 86.4261 55.1355 86.9739 55.1355 87.6954V90.6965H54.4369V87.7643C54.4369 87.2264 54.3024 86.8164 54.0335 86.5344C53.7645 86.2523 53.3808 86.1112 52.8823 86.1112C52.3247 86.1112 51.8819 86.2785 51.5539 86.6131C51.2325 86.9411 51.0718 87.397 51.0718 87.9808V90.6965H50.3731V85.5209H51.0422V86.4753C51.2325 86.1604 51.4949 85.9177 51.8294 85.7472C52.1705 85.5701 52.5641 85.4815 53.0102 85.4815Z" fill="white"/>
<path d="M59.7578 90.3816C59.6266 90.4997 59.4626 90.5916 59.2658 90.6572C59.0756 90.7162 58.8755 90.7457 58.6656 90.7457C58.1802 90.7457 57.8062 90.6145 57.5439 90.3521C57.2815 90.0897 57.1503 89.7191 57.1503 89.2403V86.1112H56.2253V85.5209H57.1503V84.3893H57.8489V85.5209H59.4232V86.1112H57.8489V89.2009C57.8489 89.5092 57.9243 89.7454 58.0752 89.9093C58.2326 90.0668 58.4557 90.1455 58.7443 90.1455C58.8886 90.1455 59.0264 90.1225 59.1576 90.0766C59.2953 90.0307 59.4134 89.9651 59.5118 89.8798L59.7578 90.3816Z" fill="white"/>
<path d="M65.3535 88.3252H61.0241C61.0634 88.8631 61.2701 89.2993 61.644 89.6338C62.0179 89.9618 62.4902 90.1258 63.0609 90.1258C63.3823 90.1258 63.6775 90.0701 63.9465 89.9585C64.2154 89.8405 64.4483 89.6699 64.6451 89.4469L65.0387 89.8995C64.8091 90.175 64.5204 90.3849 64.1728 90.5292C63.8317 90.6736 63.4545 90.7457 63.0412 90.7457C62.5099 90.7457 62.0376 90.6342 61.6243 90.4112C61.2176 90.1816 60.8995 89.8667 60.6699 89.4666C60.4403 89.0664 60.3255 88.6138 60.3255 88.1087C60.3255 87.6036 60.4337 87.151 60.6502 86.7508C60.8732 86.3507 61.175 86.0391 61.5554 85.8161C61.9425 85.593 62.3754 85.4815 62.8543 85.4815C63.3331 85.4815 63.7628 85.593 64.1432 85.8161C64.5237 86.0391 64.8222 86.3507 65.0387 86.7508C65.2551 87.1444 65.3634 87.597 65.3634 88.1087L65.3535 88.3252ZM62.8543 86.0817C62.3557 86.0817 61.9359 86.2424 61.5948 86.5639C61.2602 86.8787 61.07 87.292 61.0241 87.8037H64.6943C64.6484 87.292 64.4548 86.8787 64.1137 86.5639C63.7792 86.2424 63.3594 86.0817 62.8543 86.0817Z" fill="white"/>
<path d="M67.4544 86.5344C67.6184 86.1867 67.8611 85.9243 68.1826 85.7472C68.5106 85.5701 68.914 85.4815 69.3929 85.4815V86.1604L69.2256 86.1506C68.6811 86.1506 68.2547 86.3179 67.9464 86.6524C67.6381 86.987 67.484 87.456 67.484 88.0595V90.6965H66.7853V85.5209H67.4544V86.5344Z" fill="white"/>
<path d="M73.2948 85.4815C73.9442 85.4815 74.4592 85.6717 74.8396 86.0522C75.2266 86.4261 75.4202 86.9739 75.4202 87.6954V90.6965H74.7215V87.7643C74.7215 87.2264 74.5871 86.8164 74.3181 86.5344C74.0492 86.2523 73.6654 86.1112 73.1669 86.1112C72.6093 86.1112 72.1665 86.2785 71.8385 86.6131C71.5171 86.9411 71.3564 87.397 71.3564 87.9808V90.6965H70.6578V85.5209H71.3269V86.4753C71.5171 86.1604 71.7795 85.9177 72.114 85.7472C72.4552 85.5701 72.8487 85.4815 73.2948 85.4815Z" fill="white"/>
<path d="M81.8426 88.3252H77.5132C77.5525 88.8631 77.7591 89.2993 78.1331 89.6338C78.507 89.9618 78.9793 90.1258 79.55 90.1258C79.8714 90.1258 80.1666 90.0701 80.4355 89.9585C80.7045 89.8405 80.9374 89.6699 81.1341 89.4469L81.5277 89.8995C81.2981 90.175 81.0095 90.3849 80.6618 90.5292C80.3207 90.6736 79.9436 90.7457 79.5303 90.7457C78.9989 90.7457 78.5266 90.6342 78.1134 90.4112C77.7067 90.1816 77.3885 89.8667 77.1589 89.4666C76.9293 89.0664 76.8146 88.6138 76.8146 88.1087C76.8146 87.6036 76.9228 87.151 77.1393 86.7508C77.3623 86.3507 77.664 86.0391 78.0445 85.8161C78.4315 85.593 78.8645 85.4815 79.3433 85.4815C79.8222 85.4815 80.2519 85.593 80.6323 85.8161C81.0128 86.0391 81.3113 86.3507 81.5277 86.7508C81.7442 87.1444 81.8524 87.597 81.8524 88.1087L81.8426 88.3252ZM79.3433 86.0817C78.8448 86.0817 78.425 86.2424 78.0839 86.5639C77.7493 86.8787 77.5591 87.292 77.5132 87.8037H81.1833C81.1374 87.292 80.9439 86.8787 80.6028 86.5639C80.2683 86.2424 79.8484 86.0817 79.3433 86.0817Z" fill="white"/>
<path d="M86 90.3816C85.8688 90.4997 85.7048 90.5916 85.508 90.6572C85.3178 90.7162 85.1177 90.7457 84.9078 90.7457C84.4224 90.7457 84.0485 90.6145 83.7861 90.3521C83.5237 90.0897 83.3925 89.7191 83.3925 89.2403V86.1112H82.4676V85.5209H83.3925V84.3893H84.0911V85.5209H85.6654V86.1112H84.0911V89.2009C84.0911 89.5092 84.1665 89.7454 84.3174 89.9093C84.4749 90.0668 84.6979 90.1455 84.9865 90.1455C85.1308 90.1455 85.2686 90.1225 85.3998 90.0766C85.5375 90.0307 85.6556 89.9651 85.754 89.8798L86 90.3816Z" fill="white"/>
<defs>
<linearGradient id="paint0_linear_58_329" x1="85.6968" y1="22.0157" x2="15.4317" y2="22.0157" gradientUnits="userSpaceOnUse">
<stop stop-color="#F4515D"/>
<stop offset="0.5625" stop-color="#ED2836"/>
<stop offset="1" stop-color="#A51F32"/>
</linearGradient>
<linearGradient id="paint1_linear_58_329" x1="79.9893" y1="22.6265" x2="9.72429" y2="22.6265" gradientUnits="userSpaceOnUse">
<stop stop-color="#F4515D"/>
<stop offset="0.5625" stop-color="#ED2836"/>
<stop offset="1" stop-color="#A51F32"/>
</linearGradient>
<linearGradient id="paint2_linear_58_329" x1="74.2816" y1="22.4239" x2="4.01658" y2="22.4239" gradientUnits="userSpaceOnUse">
<stop stop-color="#F4515D"/>
<stop offset="0.5625" stop-color="#ED2836"/>
<stop offset="1" stop-color="#A51F32"/>
</linearGradient>
</defs>
</svg>
