<svg width="1114" height="246" viewBox="0 0 1114 246" fill="none" xmlns="http://www.w3.org/2000/svg">
<path fill-rule="evenodd" clip-rule="evenodd" d="M201.883 96.8945C216.894 77.5541 234.414 54.9905 255.691 37.227C276.922 19.5011 301.649 6.76642 331.043 6.76642C394.47 6.76642 446.072 58.3681 446.072 121.796H452.838C452.838 54.6311 398.207 0 331.043 0C299.539 0 273.326 13.6882 251.354 32.0329C229.496 50.2823 211.593 73.3486 196.68 92.5631L196.679 92.5632L196.538 92.7457L192.278 98.2452L192.276 98.2473C189.498 101.817 186.742 105.385 184.013 108.927C182.058 111.463 180.154 113.926 178.295 116.315C168.804 104.34 160.239 94.2846 151.933 86.6705C140.469 76.1628 129.09 69.9197 115.984 69.9197C87.3641 69.9197 64.1077 93.2007 64.1077 121.796C64.1077 150.39 87.3641 173.671 115.984 173.671C129.09 173.671 140.469 167.428 151.933 156.921C160.239 149.306 168.804 139.251 178.295 127.276C180.154 129.665 182.058 132.128 184.013 134.664L184.013 134.665C186.742 138.206 189.497 141.774 192.276 145.343L192.278 145.346L196.536 150.843L196.537 150.844L196.601 150.927L196.602 150.928C211.52 170.163 229.447 193.277 251.346 211.558C273.321 229.903 299.539 243.591 331.043 243.591C398.207 243.591 452.838 188.96 452.838 121.796H446.072C446.072 185.223 394.47 236.825 331.043 236.825C301.649 236.825 276.916 224.09 255.682 206.364C234.403 188.601 216.883 166.037 201.884 146.698L197.622 141.196L197.617 141.189C194.848 137.632 192.1 134.074 189.372 130.534C187.059 127.532 184.805 124.617 182.603 121.796C184.805 118.974 187.059 116.059 189.372 113.057C192.1 109.517 194.848 105.959 197.617 102.402L201.883 96.8945ZM174.002 121.796C164.178 109.348 155.587 99.1993 147.36 91.6585C136.506 81.7091 126.695 76.6861 115.984 76.6861C91.1032 76.6861 70.8741 96.9357 70.8741 121.796C70.8741 146.655 91.1032 166.905 115.984 166.905C126.695 166.905 136.506 161.882 147.36 151.933C155.587 144.392 164.178 134.243 174.002 121.796Z" fill="url(#paint0_linear_122_146)"/>
<path fill-rule="evenodd" clip-rule="evenodd" d="M334.426 38.3428C311.351 38.3428 291.051 50.0117 273.456 65.5297C255.922 80.9937 240.672 100.646 227.691 117.375L227.556 117.548L227.551 117.556L225.896 119.675C224.645 118.062 223.401 116.45 222.16 114.843L222.158 114.84C221.581 114.092 221.004 113.345 220.428 112.599C205.589 93.3206 191.185 74.7894 175.198 61.12C159.122 47.3751 141.218 38.3428 119.367 38.3428C71.4868 38.3428 32.5312 77.2983 32.5312 125.178C32.5312 173.059 71.4868 212.014 119.367 212.014C141.218 212.014 159.122 202.982 175.198 189.237C191.185 175.567 205.589 157.036 220.428 137.758C221.003 137.013 221.579 136.267 222.155 135.521L222.158 135.517L222.16 135.514C223.401 133.907 224.645 132.295 225.896 130.682L227.551 132.801L227.556 132.809L227.691 132.982C240.672 149.71 255.922 169.363 273.456 184.827C291.051 200.345 311.351 212.014 334.426 212.014C382.306 212.014 421.262 173.059 421.262 125.178C421.262 77.2983 382.306 38.3428 334.426 38.3428ZM221.603 125.178C219.986 123.1 218.384 121.025 216.796 118.967L216.796 118.967C216.22 118.221 215.646 117.477 215.074 116.737L215.07 116.732C200.137 97.3307 186.157 79.3929 170.801 66.2629C155.531 53.2072 139.129 45.1092 119.367 45.1092C75.2238 45.1092 39.2977 81.0353 39.2977 125.178C39.2977 169.322 75.2238 205.248 119.367 205.248C139.129 205.248 155.531 197.15 170.801 184.094C186.157 170.964 200.137 153.026 215.07 133.625L215.074 133.62C215.646 132.88 216.22 132.136 216.796 131.39L216.796 131.39C218.384 129.332 219.986 127.257 221.603 125.178ZM230.185 125.178L232.896 128.653C245.981 145.515 260.896 164.728 277.932 179.753C294.97 194.779 313.723 205.248 334.426 205.248C378.569 205.248 414.496 169.322 414.496 125.178C414.496 81.0353 378.569 45.1092 334.426 45.1092C313.723 45.1092 294.97 55.5777 277.932 70.6044C260.896 85.6293 245.981 104.842 232.896 121.704L232.89 121.712L230.185 125.178Z" fill="url(#paint1_linear_122_146)"/>
<path fill-rule="evenodd" clip-rule="evenodd" d="M122.75 2.25537C55.5857 2.25537 0.95459 56.8865 0.95459 124.051H7.72101C7.72101 60.6235 59.3227 9.02179 122.75 9.02179C180.255 9.02179 214.689 53.4023 246.15 94.2675C248.79 97.6968 251.456 101.154 254.169 104.636L258.545 110.252L258.599 110.321C262.044 114.762 265.639 119.394 269.354 124.051C265.639 128.708 262.044 133.34 258.599 137.78L258.545 137.85L254.169 143.466C251.456 146.948 248.79 150.405 246.15 153.834C214.689 194.699 180.255 239.08 122.75 239.08C59.3227 239.08 7.72101 187.478 7.72101 124.051H0.954596C0.954596 191.215 55.5857 245.846 122.75 245.846C183.854 245.846 220.194 198.643 251.126 158.463L251.512 157.962C254.15 154.535 256.807 151.09 259.507 147.625L263.887 142.003C267.071 137.9 270.35 133.675 273.709 129.446C280.672 137.959 288.002 146.338 295.529 153.558C308.651 166.147 323.078 175.927 337.809 175.927C366.429 175.927 389.685 152.646 389.685 124.051C389.685 95.4561 366.429 72.175 337.809 72.175C323.078 72.175 308.651 81.9553 295.529 94.5438C288.002 101.764 280.672 110.143 273.709 118.656C270.35 114.427 267.071 110.202 263.887 106.098L259.507 100.477C256.806 97.0116 254.15 93.5669 251.512 90.1398L251.126 89.6383C220.194 49.4591 183.854 2.25537 122.75 2.25537ZM278.041 124.051C285.165 132.813 292.603 141.375 300.213 148.675C313.164 161.1 325.903 169.16 337.809 169.16C362.69 169.16 382.919 148.911 382.919 124.051C382.919 99.191 362.69 78.9415 337.809 78.9415C325.903 78.9415 313.164 87.002 300.213 99.4267C292.603 106.727 285.165 115.289 278.041 124.051Z" fill="url(#paint2_linear_122_146)"/>
<path d="M518.87 118.506L530.043 103.573C538.534 111.366 550.108 117.64 564.175 117.64C579.932 117.64 591.506 110.395 591.506 98.3345C591.506 85.0281 580.713 76.4317 548.862 76.4317V59.45C576.658 59.45 587.219 50.7058 587.219 38.8567C587.219 28.2115 578.2 21.7484 564.619 21.7484C553.53 21.7484 543.793 26.5429 535.154 33.8087L523.136 19.425C534.753 9.66693 549.01 3.09814 565.612 3.09814C591.823 3.09814 610.748 15.4119 610.748 37.1458C610.748 51.5295 600.398 61.2242 584.705 66.7792V67.5818C601.391 71.5315 615.036 82.409 615.036 99.623C615.036 123.004 592.584 136.754 566.14 136.754C544.047 136.712 528.607 128.665 518.87 118.506Z" fill="white"/>
<path d="M647.309 2H691.537C718.974 2 740.306 11.7159 740.306 41.2858C740.306 69.7152 718.974 82.6204 691.537 82.6204H670.965V134.283H647.309V2ZM689.087 63.8013C707.209 63.8013 717.052 56.1975 717.052 41.2858C717.052 26.1207 707.209 20.798 689.087 20.798H670.944V63.8013H689.087ZM704.104 62.2171L745.397 134.262H718.974L687.038 76.3051L704.104 62.2171Z" fill="white"/>
<path d="M772.559 2H857.382V21.7907H796.088V55.6272H848.004V75.418H796.088V114.514H859.41V134.304H772.559V2V2Z" fill="white"/>
<path d="M889.022 2H923.662C962.715 2 986.139 23.8184 986.139 67.5397C986.139 111.388 962.715 134.283 924.929 134.283H889.044V2H889.022ZM922.225 115.19C947.465 115.19 961.912 100.067 961.912 67.5186C961.912 35.0972 947.465 21.0726 922.225 21.0726H912.552V115.19H922.225Z" fill="white"/>
<path d="M1007.56 101.376C1007.56 84.6052 1019.91 74.9317 1033.49 68.4685V67.6659C1022.76 60.6113 1014.31 50.9377 1014.31 37.4412C1014.31 16.5732 1031.85 3.07666 1056.18 3.07666C1081.61 3.07666 1097.28 17.228 1097.28 37.927C1097.28 49.9239 1088.6 60.379 1078.25 67.2646V68.0672C1092.13 74.995 1102.94 83.8449 1102.94 101.735C1102.94 121.483 1085.77 136.733 1055.33 136.733C1025.91 136.712 1007.56 122.032 1007.56 101.376ZM1080.93 100.89C1080.93 86.2105 1065.68 81.9228 1045.3 74.8049C1035.44 80.6556 1028.15 88.3015 1028.15 98.8622C1028.15 111.535 1039.49 120.005 1055.9 120.005C1071.34 120.005 1080.93 112.908 1080.93 100.89ZM1077.66 39.2999C1077.66 28.0844 1069.82 19.7626 1055.63 19.7626C1043.84 19.7626 1035.18 26.2257 1035.18 37.4412C1035.18 50.283 1047.73 56.028 1064.86 61.6463C1073.31 54.8452 1077.66 47.4105 1077.66 39.2999Z" fill="white"/>
<path d="M524.066 199.53H507V195.09H546.267V199.53H529.2V243.653H524.066V199.53Z" fill="white"/>
<path d="M572.02 206.884C576.599 206.884 580.23 208.225 582.913 210.908C585.641 213.544 587.006 217.406 587.006 222.494V243.653H582.08V222.979C582.08 219.187 581.132 216.296 579.236 214.307C577.339 212.318 574.634 211.324 571.119 211.324C567.187 211.324 564.065 212.503 561.753 214.862C559.487 217.175 558.353 220.389 558.353 224.505V243.653H553.428V192.176H558.353V213.544C559.695 211.417 561.545 209.775 563.903 208.618C566.262 207.462 568.968 206.884 572.02 206.884Z" fill="white"/>
<path d="M632.288 226.934H601.763C602.04 230.726 603.497 233.802 606.133 236.161C608.77 238.473 612.1 239.629 616.124 239.629C618.39 239.629 620.471 239.236 622.367 238.45C624.264 237.618 625.906 236.415 627.293 234.843L630.068 238.034C628.449 239.976 626.414 241.456 623.963 242.474C621.558 243.491 618.899 244 615.985 244C612.238 244 608.908 243.214 605.995 241.641C603.127 240.023 600.884 237.803 599.265 234.981C597.646 232.16 596.837 228.969 596.837 225.407C596.837 221.846 597.6 218.655 599.126 215.833C600.699 213.012 602.826 210.815 605.509 209.243C608.238 207.67 611.29 206.884 614.667 206.884C618.043 206.884 621.072 207.67 623.755 209.243C626.437 210.815 628.542 213.012 630.068 215.833C631.594 218.609 632.358 221.8 632.358 225.407L632.288 226.934ZM614.667 211.116C611.152 211.116 608.192 212.249 605.787 214.515C603.428 216.735 602.086 219.649 601.763 223.257H627.64C627.316 219.649 625.952 216.735 623.547 214.515C621.188 212.249 618.228 211.116 614.667 211.116Z" fill="white"/>
<path d="M702.166 195.09V243.653H697.934L666.715 204.248V243.653H661.581V195.09H665.813L697.102 234.496V195.09H702.166Z" fill="white"/>
<path d="M748.75 226.934H718.225C718.502 230.726 719.959 233.802 722.596 236.161C725.232 238.473 728.562 239.629 732.586 239.629C734.852 239.629 736.933 239.236 738.83 238.45C740.726 237.618 742.368 236.415 743.755 234.843L746.53 238.034C744.912 239.976 742.877 241.456 740.425 242.474C738.02 243.491 735.361 244 732.447 244C728.701 244 725.371 243.214 722.457 241.641C719.589 240.023 717.346 237.803 715.727 234.981C714.109 232.16 713.299 228.969 713.299 225.407C713.299 221.846 714.062 218.655 715.589 215.833C717.161 213.012 719.289 210.815 721.971 209.243C724.7 207.67 727.753 206.884 731.129 206.884C734.505 206.884 737.535 207.67 740.217 209.243C742.9 210.815 745.004 213.012 746.53 215.833C748.057 218.609 748.82 221.8 748.82 225.407L748.75 226.934ZM731.129 211.116C727.614 211.116 724.654 212.249 722.249 214.515C719.89 216.735 718.549 219.649 718.225 223.257H744.102C743.778 219.649 742.414 216.735 740.009 214.515C737.65 212.249 734.69 211.116 731.129 211.116Z" fill="white"/>
<path d="M781.07 243.653L769.485 228.391L757.829 243.653H752.279L766.71 224.922L752.973 207.161H758.523L769.485 221.453L780.446 207.161H785.857L772.121 224.922L786.69 243.653H781.07Z" fill="white"/>
<path d="M814.106 241.433C813.181 242.266 812.025 242.913 810.637 243.376C809.296 243.792 807.885 244 806.405 244C802.983 244 800.346 243.075 798.496 241.225C796.646 239.375 795.721 236.762 795.721 233.386V211.324H789.2V207.161H795.721V199.183H800.647V207.161H811.747V211.324H800.647V233.108C800.647 235.282 801.179 236.947 802.243 238.103C803.353 239.213 804.925 239.768 806.96 239.768C807.978 239.768 808.949 239.606 809.874 239.283C810.845 238.959 811.678 238.496 812.371 237.895L814.106 241.433Z" fill="white"/>
<path d="M842.27 195.09H847.404V243.653H842.27V195.09Z" fill="white"/>
<path d="M880.757 206.884C885.336 206.884 888.967 208.225 891.649 210.908C894.378 213.544 895.742 217.406 895.742 222.494V243.653H890.817V222.979C890.817 219.187 889.869 216.296 887.972 214.307C886.076 212.318 883.37 211.324 879.855 211.324C875.924 211.324 872.802 212.503 870.49 214.862C868.223 217.175 867.09 220.389 867.09 224.505V243.653H862.164V207.161H866.882V213.891C868.223 211.671 870.073 209.96 872.432 208.757C874.837 207.508 877.612 206.884 880.757 206.884Z" fill="white"/>
<path d="M928.332 241.433C927.407 242.266 926.251 242.913 924.864 243.376C923.522 243.792 922.112 244 920.632 244C917.209 244 914.573 243.075 912.723 241.225C910.873 239.375 909.948 236.762 909.948 233.386V211.324H903.426V207.161H909.948V199.183H914.873V207.161H925.974V211.324H914.873V233.108C914.873 235.282 915.405 236.947 916.469 238.103C917.579 239.213 919.152 239.768 921.187 239.768C922.204 239.768 923.175 239.606 924.1 239.283C925.072 238.959 925.904 238.496 926.598 237.895L928.332 241.433Z" fill="white"/>
<path d="M967.786 226.934H937.261C937.538 230.726 938.995 233.802 941.631 236.161C944.268 238.473 947.598 239.629 951.621 239.629C953.888 239.629 955.969 239.236 957.865 238.45C959.762 237.618 961.404 236.415 962.791 234.843L965.566 238.034C963.947 239.976 961.912 241.456 959.461 242.474C957.056 243.491 954.397 244 951.483 244C947.736 244 944.406 243.214 941.493 241.641C938.625 240.023 936.382 237.803 934.763 234.981C933.144 232.16 932.335 228.969 932.335 225.407C932.335 221.846 933.098 218.655 934.624 215.833C936.197 213.012 938.324 210.815 941.007 209.243C943.736 207.67 946.788 206.884 950.165 206.884C953.541 206.884 956.57 207.67 959.253 209.243C961.935 210.815 964.04 213.012 965.566 215.833C967.092 218.609 967.855 221.8 967.855 225.407L967.786 226.934ZM950.165 211.116C946.65 211.116 943.69 212.249 941.285 214.515C938.926 216.735 937.584 219.649 937.261 223.257H963.138C962.814 219.649 961.45 216.735 959.045 214.515C956.686 212.249 953.726 211.116 950.165 211.116Z" fill="white"/>
<path d="M982.599 214.307C983.755 211.856 985.467 210.006 987.733 208.757C990.045 207.508 992.89 206.884 996.266 206.884V211.671L995.087 211.602C991.248 211.602 988.242 212.781 986.068 215.14C983.894 217.499 982.807 220.805 982.807 225.06V243.653H977.881V207.161H982.599V214.307Z" fill="white"/>
<path d="M1023.78 206.884C1028.36 206.884 1031.99 208.225 1034.67 210.908C1037.4 213.544 1038.76 217.406 1038.76 222.494V243.653H1033.84V222.979C1033.84 219.187 1032.89 216.296 1030.99 214.307C1029.1 212.318 1026.39 211.324 1022.88 211.324C1018.94 211.324 1015.82 212.503 1013.51 214.862C1011.24 217.175 1010.11 220.389 1010.11 224.505V243.653H1005.18V207.161H1009.9V213.891C1011.24 211.671 1013.09 209.96 1015.45 208.757C1017.86 207.508 1020.63 206.884 1023.78 206.884Z" fill="white"/>
<path d="M1084.05 226.934H1053.52C1053.8 230.726 1055.25 233.802 1057.89 236.161C1060.53 238.473 1063.86 239.629 1067.88 239.629C1070.15 239.629 1072.23 239.236 1074.12 238.45C1076.02 237.618 1077.66 236.415 1079.05 234.843L1081.83 238.034C1080.21 239.976 1078.17 241.456 1075.72 242.474C1073.31 243.491 1070.66 244 1067.74 244C1064 244 1060.67 243.214 1057.75 241.641C1054.88 240.023 1052.64 237.803 1051.02 234.981C1049.4 232.16 1048.59 228.969 1048.59 225.407C1048.59 221.846 1049.36 218.655 1050.88 215.833C1052.46 213.012 1054.58 210.815 1057.27 209.243C1059.99 207.67 1063.05 206.884 1066.42 206.884C1069.8 206.884 1072.83 207.67 1075.51 209.243C1078.19 210.815 1080.3 213.012 1081.83 215.833C1083.35 218.609 1084.11 221.8 1084.11 225.407L1084.05 226.934ZM1066.42 211.116C1062.91 211.116 1059.95 212.249 1057.54 214.515C1055.18 216.735 1053.84 219.649 1053.52 223.257H1079.4C1079.07 219.649 1077.71 216.735 1075.3 214.515C1072.94 212.249 1069.98 211.116 1066.42 211.116Z" fill="white"/>
<path d="M1113.36 241.433C1112.43 242.266 1111.28 242.913 1109.89 243.376C1108.55 243.792 1107.14 244 1105.66 244C1102.23 244 1099.6 243.075 1097.75 241.225C1095.9 239.375 1094.97 236.762 1094.97 233.386V211.324H1088.45V207.161H1094.97V199.183H1099.9V207.161H1111V211.324H1099.9V233.108C1099.9 235.282 1100.43 236.947 1101.49 238.103C1102.6 239.213 1104.18 239.768 1106.21 239.768C1107.23 239.768 1108.2 239.606 1109.13 239.283C1110.1 238.959 1110.93 238.496 1111.62 237.895L1113.36 241.433Z" fill="white"/>
<defs>
<linearGradient id="paint0_linear_122_146" x1="458.113" y1="121.801" x2="69.3749" y2="121.801" gradientUnits="userSpaceOnUse">
<stop stop-color="#F4515D"/>
<stop offset="0.5625" stop-color="#ED2836"/>
<stop offset="1" stop-color="#A51F32"/>
</linearGradient>
<linearGradient id="paint1_linear_122_146" x1="426.536" y1="125.182" x2="37.7985" y2="125.182" gradientUnits="userSpaceOnUse">
<stop stop-color="#F4515D"/>
<stop offset="0.5625" stop-color="#ED2836"/>
<stop offset="1" stop-color="#A51F32"/>
</linearGradient>
<linearGradient id="paint2_linear_122_146" x1="394.959" y1="124.056" x2="6.22186" y2="124.056" gradientUnits="userSpaceOnUse">
<stop stop-color="#F4515D"/>
<stop offset="0.5625" stop-color="#ED2836"/>
<stop offset="1" stop-color="#A51F32"/>
</linearGradient>
</defs>
</svg>
