<svg width="1552" height="840" viewBox="0 0 1552 840" fill="none" xmlns="http://www.w3.org/2000/svg">
<mask id="mask0_136_284" style="mask-type:alpha" maskUnits="userSpaceOnUse" x="0" y="0" width="1552" height="840">
<rect width="1552" height="840" fill="#C4C4C4"/>
</mask>
<g mask="url(#mask0_136_284)">
<path d="M-43.3659 -30.3475L8.72578 -60.4226L60.8174 -30.3475V29.8027L8.72578 59.8779L-43.3659 29.8027V-30.3475Z" fill="url(#paint0_linear_136_284)" stroke="url(#paint1_linear_136_284)"/>
<path d="M-97.8113 62.838L-45.7197 32.7629L6.37199 62.838V122.988L-45.7197 153.063L-97.8113 122.988V62.838Z" fill="url(#paint2_linear_136_284)" stroke="url(#paint3_linear_136_284)"/>
<path d="M117.782 62.838L169.874 32.7629L221.966 62.838V122.988L169.874 153.063L117.782 122.988V62.838Z" fill="url(#paint4_linear_136_284)" stroke="url(#paint5_linear_136_284)"/>
<path d="M64.478 -30.3475L116.57 -60.4226L168.661 -30.3475V29.8027L116.57 59.8779L64.478 29.8027V-30.3475Z" fill="url(#paint6_linear_136_284)" stroke="url(#paint7_linear_136_284)"/>
<path d="M172.275 -30.3475L224.367 -60.4226L276.458 -30.3475V29.8027L224.367 59.8779L172.275 29.8027V-30.3475Z" fill="url(#paint8_linear_136_284)" stroke="url(#paint9_linear_136_284)"/>
<path d="M63.337 156.023L115.429 125.948L167.52 156.023V216.174L115.429 246.249L63.337 216.174V156.023Z" fill="url(#paint10_linear_136_284)" stroke="url(#paint11_linear_136_284)"/>
<path d="M8.89157 249.209L60.9832 219.134L113.075 249.209V309.359L60.9832 339.434L8.89157 309.359V249.209Z" fill="url(#paint12_linear_136_284)" stroke="url(#paint13_linear_136_284)"/>
<path d="M-98.364 249.209L-46.2724 219.134L5.81926 249.209V309.359L-46.2724 339.434L-98.364 309.359V249.209Z" fill="url(#paint14_linear_136_284)" stroke="url(#paint15_linear_136_284)"/>
<path d="M9.93857 62.8379L62.0302 32.7628L114.122 62.8379V122.988L62.0302 153.063L9.93857 122.988V62.8379Z" fill="url(#paint16_linear_136_284)" stroke="url(#paint17_linear_136_284)"/>
<path d="M-43.4599 156.023L8.63178 125.948L60.7234 156.023V216.173L8.63178 246.249L-43.4599 216.173V156.023Z" fill="url(#paint18_linear_136_284)" stroke="url(#paint19_linear_136_284)"/>
<path d="M-44.8011 341.158L7.2906 311.083L59.3822 341.158V401.308L7.2906 431.383L-44.8011 401.308V341.158Z" fill="url(#paint20_linear_136_284)" stroke="url(#paint21_linear_136_284)"/>
<path d="M280.54 -30.3475L332.632 -60.4226L384.723 -30.3475V29.8027L332.632 59.8779L280.54 29.8027V-30.3475Z" fill="url(#paint22_linear_136_284)" stroke="url(#paint23_linear_136_284)"/>
<path d="M226.095 62.838L278.186 32.7629L330.278 62.838V122.988L278.186 153.063L226.095 122.988V62.838Z" fill="url(#paint24_linear_136_284)" stroke="url(#paint25_linear_136_284)"/>
<path d="M442.688 62.838L494.78 32.7629L546.872 62.838V122.988L494.78 153.063L442.688 122.988V62.838Z" fill="url(#paint26_linear_136_284)" stroke="url(#paint27_linear_136_284)"/>
<path d="M388.384 -30.3475L440.475 -60.4226L492.567 -30.3475V29.8027L440.475 59.8779L388.384 29.8027V-30.3475Z" fill="url(#paint28_linear_136_284)" stroke="url(#paint29_linear_136_284)"/>
<path d="M496.181 -30.3475L548.272 -60.4226L600.364 -30.3475V29.8027L548.272 59.8779L496.181 29.8027V-30.3475Z" fill="url(#paint30_linear_136_284)" stroke="url(#paint31_linear_136_284)"/>
<path d="M389.243 156.023L441.334 125.948L493.426 156.023V216.174L441.334 246.249L389.243 216.174V156.023Z" fill="url(#paint32_linear_136_284)" stroke="url(#paint33_linear_136_284)"/>
<path d="M333.844 62.8379L385.936 32.7628L438.028 62.8379V122.988L385.936 153.063L333.844 122.988V62.8379Z" fill="url(#paint34_linear_136_284)" stroke="url(#paint35_linear_136_284)"/>
<path d="M280.446 156.023L332.538 125.948L384.629 156.023V216.173L332.538 246.249L280.446 216.173V156.023Z" fill="url(#paint36_linear_136_284)" stroke="url(#paint37_linear_136_284)"/>
<path d="M1552.03 278.993L1589.9 344.596L1552.03 410.2L1476.28 410.2L1438.4 344.596L1476.28 278.993L1552.03 278.993Z" fill="url(#paint38_linear_136_284)" stroke="url(#paint39_linear_136_284)"/>
<path d="M1551.03 549.777L1588.91 615.38L1551.03 680.984L1475.28 680.984L1437.4 615.38L1475.28 549.777L1551.03 549.777Z" fill="url(#paint40_linear_136_284)" stroke="url(#paint41_linear_136_284)"/>
<path d="M1433.84 617.562L1471.72 683.166L1433.84 748.769L1358.09 748.769L1320.21 683.166L1358.09 617.562L1433.84 617.562Z" fill="url(#paint42_linear_136_284)" stroke="url(#paint43_linear_136_284)"/>
<path d="M1433.9 482.343L1471.78 547.947L1433.9 613.55L1358.15 613.55L1320.27 547.947L1358.15 482.343L1433.9 482.343Z" fill="url(#paint44_linear_136_284)" stroke="url(#paint45_linear_136_284)"/>
<path d="M1316.78 412.91L1354.65 478.514L1316.78 544.117L1241.02 544.117L1203.15 478.514L1241.02 412.91L1316.78 412.91Z" fill="url(#paint46_linear_136_284)" stroke="url(#paint47_linear_136_284)"/>
<path d="M1317.78 278.099L1355.65 343.702L1317.78 409.305L1242.02 409.305L1204.15 343.702L1242.02 278.099L1317.78 278.099Z" fill="url(#paint48_linear_136_284)" stroke="url(#paint49_linear_136_284)"/>
<path d="M1551.03 414.226L1588.91 479.83L1551.03 545.433L1475.28 545.433L1437.4 479.83L1475.28 414.226L1551.03 414.226Z" fill="url(#paint50_linear_136_284)" stroke="url(#paint51_linear_136_284)"/>
<path d="M1433.9 347.109L1471.78 412.712L1433.9 478.316L1358.15 478.316L1320.27 412.712L1358.15 347.109L1433.9 347.109Z" fill="url(#paint52_linear_136_284)" stroke="url(#paint53_linear_136_284)"/>
<path d="M1199.2 345.423L1237.08 411.026L1199.2 476.63L1123.45 476.63L1085.58 411.026L1123.45 345.423L1199.2 345.423Z" fill="url(#paint54_linear_136_284)" stroke="url(#paint55_linear_136_284)"/>
<path d="M1551.84 684.992L1589.72 750.596L1551.84 816.199L1476.09 816.199L1438.21 750.596L1476.09 684.992L1551.84 684.992Z" fill="url(#paint56_linear_136_284)" stroke="url(#paint57_linear_136_284)"/>
<path d="M1315.84 685.992L1353.71 751.596L1315.84 817.199L1240.09 817.199L1202.21 751.596L1240.09 685.992L1315.84 685.992Z" fill="url(#paint58_linear_136_284)" stroke="url(#paint59_linear_136_284)"/>
<path d="M1315.84 821.852L1353.71 887.456L1315.84 953.059L1240.09 953.059L1202.21 887.456L1240.09 821.852L1315.84 821.852Z" fill="url(#paint60_linear_136_284)" stroke="url(#paint61_linear_136_284)"/>
<path d="M1551.84 813.26L1589.72 878.863L1551.84 944.467L1476.09 944.467L1438.21 878.863L1476.09 813.26L1551.84 813.26Z" fill="url(#paint62_linear_136_284)" stroke="url(#paint63_linear_136_284)"/>
<path d="M1434.65 753.464L1472.53 819.067L1434.65 884.67L1358.9 884.67L1321.02 819.067L1358.9 753.464L1434.65 753.464Z" fill="url(#paint64_linear_136_284)" stroke="url(#paint65_linear_136_284)"/>
</g>
<defs>
<linearGradient id="paint0_linear_136_284" x1="-42.834" y1="50.7028" x2="62.5717" y2="-47.038" gradientUnits="userSpaceOnUse">
<stop stop-color="#FBFBFB"/>
<stop offset="0.9893" stop-color="#ECF0F9"/>
</linearGradient>
<linearGradient id="paint1_linear_136_284" x1="40.8413" y1="-48.7377" x2="8.72578" y2="60.4552" gradientUnits="userSpaceOnUse">
<stop stop-color="white"/>
<stop offset="1" stop-color="#F9F9F9"/>
</linearGradient>
<linearGradient id="paint2_linear_136_284" x1="-97.2794" y1="143.888" x2="8.1263" y2="46.1475" gradientUnits="userSpaceOnUse">
<stop stop-color="#FBFBFB"/>
<stop offset="0.9893" stop-color="#ECF0F9"/>
</linearGradient>
<linearGradient id="paint3_linear_136_284" x1="-13.6041" y1="44.4479" x2="-45.7197" y2="153.641" gradientUnits="userSpaceOnUse">
<stop stop-color="white"/>
<stop offset="1" stop-color="#F9F9F9"/>
</linearGradient>
<linearGradient id="paint4_linear_136_284" x1="118.314" y1="143.888" x2="223.72" y2="46.1475" gradientUnits="userSpaceOnUse">
<stop stop-color="#FBFBFB"/>
<stop offset="0.9893" stop-color="#ECF0F9"/>
</linearGradient>
<linearGradient id="paint5_linear_136_284" x1="201.99" y1="44.4479" x2="169.874" y2="153.641" gradientUnits="userSpaceOnUse">
<stop stop-color="white"/>
<stop offset="1" stop-color="#F9F9F9"/>
</linearGradient>
<linearGradient id="paint6_linear_136_284" x1="65.0099" y1="50.7028" x2="170.416" y2="-47.038" gradientUnits="userSpaceOnUse">
<stop stop-color="#FBFBFB"/>
<stop offset="0.9893" stop-color="#ECF0F9"/>
</linearGradient>
<linearGradient id="paint7_linear_136_284" x1="148.685" y1="-48.7377" x2="116.57" y2="60.4552" gradientUnits="userSpaceOnUse">
<stop stop-color="white"/>
<stop offset="1" stop-color="#F9F9F9"/>
</linearGradient>
<linearGradient id="paint8_linear_136_284" x1="172.807" y1="50.7028" x2="278.212" y2="-47.038" gradientUnits="userSpaceOnUse">
<stop stop-color="#FBFBFB"/>
<stop offset="0.9893" stop-color="#ECF0F9"/>
</linearGradient>
<linearGradient id="paint9_linear_136_284" x1="256.482" y1="-48.7377" x2="224.367" y2="60.4552" gradientUnits="userSpaceOnUse">
<stop stop-color="white"/>
<stop offset="1" stop-color="#F9F9F9"/>
</linearGradient>
<linearGradient id="paint10_linear_136_284" x1="63.8689" y1="237.074" x2="169.275" y2="139.333" gradientUnits="userSpaceOnUse">
<stop stop-color="#FBFBFB"/>
<stop offset="0.9893" stop-color="#ECF0F9"/>
</linearGradient>
<linearGradient id="paint11_linear_136_284" x1="147.544" y1="137.633" x2="115.429" y2="246.826" gradientUnits="userSpaceOnUse">
<stop stop-color="white"/>
<stop offset="1" stop-color="#F9F9F9"/>
</linearGradient>
<linearGradient id="paint12_linear_136_284" x1="9.42346" y1="330.259" x2="114.829" y2="232.518" gradientUnits="userSpaceOnUse">
<stop stop-color="#FBFBFB"/>
<stop offset="0.9893" stop-color="#ECF0F9"/>
</linearGradient>
<linearGradient id="paint13_linear_136_284" x1="93.0988" y1="230.819" x2="60.9832" y2="340.012" gradientUnits="userSpaceOnUse">
<stop stop-color="white"/>
<stop offset="1" stop-color="#F9F9F9"/>
</linearGradient>
<linearGradient id="paint14_linear_136_284" x1="-97.8322" y1="330.259" x2="7.57357" y2="232.518" gradientUnits="userSpaceOnUse">
<stop stop-color="#FBFBFB"/>
<stop offset="0.9893" stop-color="#ECF0F9"/>
</linearGradient>
<linearGradient id="paint15_linear_136_284" x1="-14.1568" y1="230.819" x2="-46.2724" y2="340.012" gradientUnits="userSpaceOnUse">
<stop stop-color="white"/>
<stop offset="1" stop-color="#F9F9F9"/>
</linearGradient>
<linearGradient id="paint16_linear_136_284" x1="10.4705" y1="143.888" x2="115.876" y2="46.1474" gradientUnits="userSpaceOnUse">
<stop stop-color="#FBFBFB"/>
<stop offset="0.9893" stop-color="#ECF0F9"/>
</linearGradient>
<linearGradient id="paint17_linear_136_284" x1="94.1458" y1="44.4477" x2="62.0302" y2="153.641" gradientUnits="userSpaceOnUse">
<stop stop-color="white"/>
<stop offset="1" stop-color="#F9F9F9"/>
</linearGradient>
<linearGradient id="paint18_linear_136_284" x1="-42.928" y1="237.074" x2="62.4777" y2="139.333" gradientUnits="userSpaceOnUse">
<stop stop-color="#FBFBFB"/>
<stop offset="0.9893" stop-color="#ECF0F9"/>
</linearGradient>
<linearGradient id="paint19_linear_136_284" x1="40.7473" y1="137.633" x2="8.63179" y2="246.826" gradientUnits="userSpaceOnUse">
<stop stop-color="white"/>
<stop offset="1" stop-color="#F9F9F9"/>
</linearGradient>
<linearGradient id="paint20_linear_136_284" x1="-44.2692" y1="422.208" x2="61.1366" y2="324.468" gradientUnits="userSpaceOnUse">
<stop stop-color="#FBFBFB"/>
<stop offset="0.9893" stop-color="#ECF0F9"/>
</linearGradient>
<linearGradient id="paint21_linear_136_284" x1="39.4062" y1="322.768" x2="7.2906" y2="431.961" gradientUnits="userSpaceOnUse">
<stop stop-color="white"/>
<stop offset="1" stop-color="#F9F9F9"/>
</linearGradient>
<linearGradient id="paint22_linear_136_284" x1="281.072" y1="50.7028" x2="386.478" y2="-47.038" gradientUnits="userSpaceOnUse">
<stop stop-color="#FBFBFB"/>
<stop offset="0.9893" stop-color="#ECF0F9"/>
</linearGradient>
<linearGradient id="paint23_linear_136_284" x1="364.747" y1="-48.7377" x2="332.632" y2="60.4552" gradientUnits="userSpaceOnUse">
<stop stop-color="white"/>
<stop offset="1" stop-color="#F9F9F9"/>
</linearGradient>
<linearGradient id="paint24_linear_136_284" x1="226.626" y1="143.888" x2="332.032" y2="46.1475" gradientUnits="userSpaceOnUse">
<stop stop-color="#FBFBFB"/>
<stop offset="0.9893" stop-color="#ECF0F9"/>
</linearGradient>
<linearGradient id="paint25_linear_136_284" x1="310.302" y1="44.4479" x2="278.186" y2="153.641" gradientUnits="userSpaceOnUse">
<stop stop-color="white"/>
<stop offset="1" stop-color="#F9F9F9"/>
</linearGradient>
<linearGradient id="paint26_linear_136_284" x1="443.22" y1="143.888" x2="548.626" y2="46.1475" gradientUnits="userSpaceOnUse">
<stop stop-color="#FBFBFB"/>
<stop offset="0.9893" stop-color="#ECF0F9"/>
</linearGradient>
<linearGradient id="paint27_linear_136_284" x1="526.895" y1="44.4479" x2="494.78" y2="153.641" gradientUnits="userSpaceOnUse">
<stop stop-color="white"/>
<stop offset="1" stop-color="#F9F9F9"/>
</linearGradient>
<linearGradient id="paint28_linear_136_284" x1="388.916" y1="50.7028" x2="494.321" y2="-47.038" gradientUnits="userSpaceOnUse">
<stop stop-color="#FBFBFB"/>
<stop offset="0.9893" stop-color="#ECF0F9"/>
</linearGradient>
<linearGradient id="paint29_linear_136_284" x1="472.591" y1="-48.7377" x2="440.475" y2="60.4552" gradientUnits="userSpaceOnUse">
<stop stop-color="white"/>
<stop offset="1" stop-color="#F9F9F9"/>
</linearGradient>
<linearGradient id="paint30_linear_136_284" x1="496.713" y1="50.7028" x2="602.118" y2="-47.038" gradientUnits="userSpaceOnUse">
<stop stop-color="#FBFBFB"/>
<stop offset="0.9893" stop-color="#ECF0F9"/>
</linearGradient>
<linearGradient id="paint31_linear_136_284" x1="580.388" y1="-48.7377" x2="548.272" y2="60.4552" gradientUnits="userSpaceOnUse">
<stop stop-color="white"/>
<stop offset="1" stop-color="#F9F9F9"/>
</linearGradient>
<linearGradient id="paint32_linear_136_284" x1="389.775" y1="237.074" x2="495.18" y2="139.333" gradientUnits="userSpaceOnUse">
<stop stop-color="#FBFBFB"/>
<stop offset="0.9893" stop-color="#ECF0F9"/>
</linearGradient>
<linearGradient id="paint33_linear_136_284" x1="473.45" y1="137.633" x2="441.334" y2="246.826" gradientUnits="userSpaceOnUse">
<stop stop-color="white"/>
<stop offset="1" stop-color="#F9F9F9"/>
</linearGradient>
<linearGradient id="paint34_linear_136_284" x1="334.376" y1="143.888" x2="439.782" y2="46.1474" gradientUnits="userSpaceOnUse">
<stop stop-color="#FBFBFB"/>
<stop offset="0.9893" stop-color="#ECF0F9"/>
</linearGradient>
<linearGradient id="paint35_linear_136_284" x1="418.052" y1="44.4477" x2="385.936" y2="153.641" gradientUnits="userSpaceOnUse">
<stop stop-color="white"/>
<stop offset="1" stop-color="#F9F9F9"/>
</linearGradient>
<linearGradient id="paint36_linear_136_284" x1="280.978" y1="237.074" x2="386.384" y2="139.333" gradientUnits="userSpaceOnUse">
<stop stop-color="#FBFBFB"/>
<stop offset="0.9893" stop-color="#ECF0F9"/>
</linearGradient>
<linearGradient id="paint37_linear_136_284" x1="364.653" y1="137.633" x2="332.538" y2="246.826" gradientUnits="userSpaceOnUse">
<stop stop-color="white"/>
<stop offset="1" stop-color="#F9F9F9"/>
</linearGradient>
<linearGradient id="paint38_linear_136_284" x1="1450.08" y1="279.79" x2="1572.93" y2="412.276" gradientUnits="userSpaceOnUse">
<stop stop-color="#FBFBFB"/>
<stop offset="0.9893" stop-color="#ECF0F9"/>
</linearGradient>
<linearGradient id="paint39_linear_136_284" x1="1575.07" y1="384.963" x2="1437.82" y2="344.596" gradientUnits="userSpaceOnUse">
<stop stop-color="white"/>
<stop offset="1" stop-color="#F9F9F9"/>
</linearGradient>
<linearGradient id="paint40_linear_136_284" x1="1449.08" y1="550.574" x2="1571.93" y2="683.06" gradientUnits="userSpaceOnUse">
<stop stop-color="#FBFBFB"/>
<stop offset="0.9893" stop-color="#ECF0F9"/>
</linearGradient>
<linearGradient id="paint41_linear_136_284" x1="1574.07" y1="655.747" x2="1436.82" y2="615.38" gradientUnits="userSpaceOnUse">
<stop stop-color="white"/>
<stop offset="1" stop-color="#F9F9F9"/>
</linearGradient>
<linearGradient id="paint42_linear_136_284" x1="1331.89" y1="618.359" x2="1454.74" y2="750.846" gradientUnits="userSpaceOnUse">
<stop stop-color="#FBFBFB"/>
<stop offset="0.9893" stop-color="#ECF0F9"/>
</linearGradient>
<linearGradient id="paint43_linear_136_284" x1="1456.88" y1="723.532" x2="1319.63" y2="683.166" gradientUnits="userSpaceOnUse">
<stop stop-color="white"/>
<stop offset="1" stop-color="#F9F9F9"/>
</linearGradient>
<linearGradient id="paint44_linear_136_284" x1="1331.95" y1="483.14" x2="1454.81" y2="615.627" gradientUnits="userSpaceOnUse">
<stop stop-color="#FBFBFB"/>
<stop offset="0.9893" stop-color="#ECF0F9"/>
</linearGradient>
<linearGradient id="paint45_linear_136_284" x1="1456.94" y1="588.314" x2="1319.7" y2="547.947" gradientUnits="userSpaceOnUse">
<stop stop-color="white"/>
<stop offset="1" stop-color="#F9F9F9"/>
</linearGradient>
<linearGradient id="paint46_linear_136_284" x1="1214.83" y1="413.707" x2="1337.68" y2="546.193" gradientUnits="userSpaceOnUse">
<stop stop-color="#FBFBFB"/>
<stop offset="0.9893" stop-color="#ECF0F9"/>
</linearGradient>
<linearGradient id="paint47_linear_136_284" x1="1339.82" y1="518.88" x2="1202.57" y2="478.514" gradientUnits="userSpaceOnUse">
<stop stop-color="white"/>
<stop offset="1" stop-color="#F9F9F9"/>
</linearGradient>
<linearGradient id="paint48_linear_136_284" x1="1215.83" y1="278.896" x2="1338.68" y2="411.382" gradientUnits="userSpaceOnUse">
<stop stop-color="#FBFBFB"/>
<stop offset="0.9893" stop-color="#ECF0F9"/>
</linearGradient>
<linearGradient id="paint49_linear_136_284" x1="1340.82" y1="384.069" x2="1203.57" y2="343.702" gradientUnits="userSpaceOnUse">
<stop stop-color="white"/>
<stop offset="1" stop-color="#F9F9F9"/>
</linearGradient>
<linearGradient id="paint50_linear_136_284" x1="1449.08" y1="415.023" x2="1571.93" y2="547.51" gradientUnits="userSpaceOnUse">
<stop stop-color="#FBFBFB"/>
<stop offset="0.9893" stop-color="#ECF0F9"/>
</linearGradient>
<linearGradient id="paint51_linear_136_284" x1="1574.07" y1="520.196" x2="1436.82" y2="479.83" gradientUnits="userSpaceOnUse">
<stop stop-color="white"/>
<stop offset="1" stop-color="#F9F9F9"/>
</linearGradient>
<linearGradient id="paint52_linear_136_284" x1="1331.95" y1="347.906" x2="1454.81" y2="480.392" gradientUnits="userSpaceOnUse">
<stop stop-color="#FBFBFB"/>
<stop offset="0.9893" stop-color="#ECF0F9"/>
</linearGradient>
<linearGradient id="paint53_linear_136_284" x1="1456.94" y1="453.079" x2="1319.7" y2="412.712" gradientUnits="userSpaceOnUse">
<stop stop-color="white"/>
<stop offset="1" stop-color="#F9F9F9"/>
</linearGradient>
<linearGradient id="paint54_linear_136_284" x1="1097.26" y1="346.22" x2="1220.11" y2="478.706" gradientUnits="userSpaceOnUse">
<stop stop-color="#FBFBFB"/>
<stop offset="0.9893" stop-color="#ECF0F9"/>
</linearGradient>
<linearGradient id="paint55_linear_136_284" x1="1222.24" y1="451.393" x2="1085" y2="411.026" gradientUnits="userSpaceOnUse">
<stop stop-color="white"/>
<stop offset="1" stop-color="#F9F9F9"/>
</linearGradient>
<linearGradient id="paint56_linear_136_284" x1="1449.89" y1="685.789" x2="1572.74" y2="818.276" gradientUnits="userSpaceOnUse">
<stop stop-color="#FBFBFB"/>
<stop offset="0.9893" stop-color="#ECF0F9"/>
</linearGradient>
<linearGradient id="paint57_linear_136_284" x1="1574.88" y1="790.962" x2="1437.63" y2="750.596" gradientUnits="userSpaceOnUse">
<stop stop-color="white"/>
<stop offset="1" stop-color="#F9F9F9"/>
</linearGradient>
<linearGradient id="paint58_linear_136_284" x1="1213.89" y1="686.789" x2="1336.74" y2="819.276" gradientUnits="userSpaceOnUse">
<stop stop-color="#FBFBFB"/>
<stop offset="0.9893" stop-color="#ECF0F9"/>
</linearGradient>
<linearGradient id="paint59_linear_136_284" x1="1338.88" y1="791.962" x2="1201.63" y2="751.596" gradientUnits="userSpaceOnUse">
<stop stop-color="white"/>
<stop offset="1" stop-color="#F9F9F9"/>
</linearGradient>
<linearGradient id="paint60_linear_136_284" x1="1213.89" y1="822.649" x2="1336.74" y2="955.136" gradientUnits="userSpaceOnUse">
<stop stop-color="#FBFBFB"/>
<stop offset="0.9893" stop-color="#ECF0F9"/>
</linearGradient>
<linearGradient id="paint61_linear_136_284" x1="1338.88" y1="927.822" x2="1201.63" y2="887.456" gradientUnits="userSpaceOnUse">
<stop stop-color="white"/>
<stop offset="1" stop-color="#F9F9F9"/>
</linearGradient>
<linearGradient id="paint62_linear_136_284" x1="1449.89" y1="814.057" x2="1572.74" y2="946.543" gradientUnits="userSpaceOnUse">
<stop stop-color="#FBFBFB"/>
<stop offset="0.9893" stop-color="#ECF0F9"/>
</linearGradient>
<linearGradient id="paint63_linear_136_284" x1="1574.88" y1="919.23" x2="1437.63" y2="878.863" gradientUnits="userSpaceOnUse">
<stop stop-color="white"/>
<stop offset="1" stop-color="#F9F9F9"/>
</linearGradient>
<linearGradient id="paint64_linear_136_284" x1="1332.7" y1="754.261" x2="1455.55" y2="886.747" gradientUnits="userSpaceOnUse">
<stop stop-color="#FBFBFB"/>
<stop offset="0.9893" stop-color="#ECF0F9"/>
</linearGradient>
<linearGradient id="paint65_linear_136_284" x1="1457.69" y1="859.434" x2="1320.44" y2="819.067" gradientUnits="userSpaceOnUse">
<stop stop-color="white"/>
<stop offset="1" stop-color="#F9F9F9"/>
</linearGradient>
</defs>
</svg>
