<svg width="22" height="23" viewBox="0 0 22 23" fill="none" xmlns="http://www.w3.org/2000/svg">
<path fill-rule="evenodd" clip-rule="evenodd" d="M1.37499 11.3291C1.37499 11.5164 1.44743 11.6961 1.57636 11.8286C1.70529 11.961 1.88016 12.0355 2.06249 12.0355L18.2779 12.0355L13.9507 16.4801C13.8216 16.6127 13.7491 16.7926 13.7491 16.9802C13.7491 17.1678 13.8216 17.3477 13.9507 17.4803C14.0798 17.6129 14.2549 17.6875 14.4375 17.6875C14.6201 17.6875 14.7951 17.6129 14.9242 17.4803L20.4242 11.8292C20.4883 11.7636 20.5391 11.6856 20.5737 11.5998C20.6084 11.514 20.6262 11.422 20.6262 11.3291C20.6262 11.2362 20.6084 11.1442 20.5737 11.0583C20.5391 10.9725 20.4883 10.8946 20.4242 10.829L14.9242 5.17786C14.8603 5.11218 14.7844 5.06009 14.7009 5.02454C14.6174 4.989 14.5279 4.9707 14.4375 4.9707C14.2549 4.9707 14.0798 5.04522 13.9507 5.17786C13.8216 5.3105 13.7491 5.4904 13.7491 5.67798C13.7491 5.86556 13.8216 6.04546 13.9507 6.1781L18.2779 10.6227L2.06249 10.6227C1.88016 10.6227 1.70529 10.6971 1.57636 10.8296C1.44743 10.9621 1.37499 11.1417 1.37499 11.3291Z" fill="white"/>
</svg>
