<svg width="24" height="24" viewBox="0 0 24 24" fill="none" xmlns="http://www.w3.org/2000/svg">
<path d="M12 0C5.37256 0 0 5.35469 0 11.9601C0 18.5655 5.37256 23.9202 12 23.9202C18.6274 23.9202 24 18.5655 24 11.9601C24 5.35469 18.6274 0 12 0ZM7.50371 20.0577H4.13021V9.23967H7.50371V20.0577ZM5.8177 7.76091C4.73641 7.76091 3.86112 6.8873 3.86112 5.81107C3.86136 4.73583 4.73641 3.86222 5.8177 3.86222C6.89604 3.86222 7.77256 4.73583 7.77256 5.81107C7.77256 6.88754 6.8958 7.76091 5.8177 7.76091ZM20.1386 20.0577H16.7678V14.7967C16.7678 13.5421 16.7445 11.9285 15.0143 11.9285C13.2598 11.9285 12.99 13.295 12.99 14.706V20.0575H9.6194V9.23967H12.8549V10.718H12.9003C13.3509 9.86735 14.4508 8.97074 16.0922 8.97074C19.5081 8.97074 20.1386 11.2113 20.1386 14.124V20.0577Z" fill="white"/>
</svg>
