<svg width="24" height="25" viewBox="0 0 24 25" fill="none" xmlns="http://www.w3.org/2000/svg">
<path d="M12 0.25C5.37321 0.25 0 5.62321 0 12.25C0 18.8768 5.37321 24.25 12 24.25C18.6268 24.25 24 18.8768 24 12.25C24 5.62321 18.6268 0.25 12 0.25ZM17.767 9.29554C17.775 9.42143 17.775 9.55268 17.775 9.68125C17.775 13.6134 14.7804 18.1429 9.30804 18.1429C7.62054 18.1429 6.05625 17.6527 4.73839 16.8089C4.97946 16.8357 5.20982 16.8464 5.45625 16.8464C6.84911 16.8464 8.12946 16.375 9.15 15.5768C7.84286 15.55 6.74464 14.6929 6.36964 13.5143C6.82768 13.5813 7.24018 13.5813 7.71161 13.4607C7.03855 13.324 6.43359 12.9584 5.99951 12.4262C5.56542 11.894 5.32898 11.2279 5.33036 10.5411V10.5036C5.72411 10.7259 6.1875 10.8625 6.67232 10.8813C6.26476 10.6096 5.93051 10.2416 5.69923 9.8099C5.46794 9.37817 5.34676 8.89603 5.34643 8.40625C5.34643 7.85179 5.49107 7.34554 5.75089 6.90625C6.49795 7.8259 7.43017 8.57806 8.48696 9.11384C9.54375 9.64961 10.7014 9.95702 11.8848 10.0161C11.4643 7.99375 12.975 6.35714 14.7911 6.35714C15.6482 6.35714 16.4196 6.71607 16.9634 7.29464C17.6357 7.16875 18.2786 6.91696 18.8518 6.57946C18.6295 7.26786 18.1634 7.84911 17.5446 8.21607C18.1446 8.15179 18.7232 7.98571 19.2589 7.75268C18.8545 8.34732 18.3482 8.875 17.767 9.29554Z" fill="white"/>
</svg>
